<svg xmlns="http://www.w3.org/2000/svg" id="Layer_1" data-name="Layer 1" viewBox="0 0 152.565 119.415">
  <defs>
    <style>
      .cls-1 {
        fill: #f2f2f2ff;
        stroke-width: 0px;
      }
    </style>
  </defs>
  <g>
    <path class="cls-1" d="m152.75,49.08l-.06-45.36C152.69,1.66,151.02,0,148.97,0L29.72.17c-2.05,0-3.71,1.67-3.71,3.72l.03,20.22c0,2.05,1.67,3.71,3.72,3.71l114.34-.16-63.88,39.71c-3.18,1.98-1.77,6.88,1.97,6.87l32.51-.05c.69,0,1.37-.2,1.96-.56l34.34-21.4c1.09-.68,1.75-1.87,1.75-3.16Z"/>
    <path class="cls-1" d="m76.58,41.65l-32.54.05c-.69,0-1.37.2-1.96.56L1.75,67.33C.66,68,0,69.2,0,70.49l.06,45.36c0,2.05,1.67,3.71,3.72,3.71l119.24-.17c2.05,0,3.71-1.67,3.71-3.72l-.03-20.22c0-2.05-1.67-3.71-3.72-3.71l-114.04.16,69.6-43.37c3.17-1.98,1.77-6.88-1.97-6.87Z"/>
  </g>
 </svg>
